HIERARCHY
ROOT Hips
{
 OFFSET 0.000000 0.000000 0.000000
 CHANNELS 6 Xposition Yposition Zposition Yrotation Xrotation Zrotation
 JOINT Chest
 {
  OFFSET 0.000000 9.588913 -0.003946
  CHANNELS 3 Yrotation Xrotation Zrotation
  JOINT Chest2
  {
   OFFSET 0.000000 9.541882 0.008053
   CHANNELS 3 Yrotation Xrotation Zrotation
   JOINT Chest3
   {
    OFFSET 0.000000 9.501360 0.000000
    CHANNELS 3 Yrotation Xrotation Zrotation
    JOINT Chest4
    {
     OFFSET 0.000000 9.491660 0.000000
     CHANNELS 3 Yrotation Xrotation Zrotation
     JOINT Neck
     {
      OFFSET 0.000000 14.331917 0.000000
      CHANNELS 3 Yrotation Xrotation Zrotation
      JOINT Head
      {
       OFFSET 0.000000 8.884799 0.017034
       CHANNELS 3 Yrotation Xrotation Zrotation
       End Site
       {
        OFFSET 0.000000 16.896195 0.008993
       }
      }
     }
     JOINT RightCollar
     {
      OFFSET -2.923010 9.499495 0.000000
      CHANNELS 3 Yrotation Xrotation Zrotation
      JOINT RightShoulder
      {
       OFFSET -13.795216 0.000000 0.000000
       CHANNELS 3 Yrotation Xrotation Zrotation
       JOINT RightElbow
       {
        OFFSET -30.272209 0.000000 0.000000
        CHANNELS 3 Yrotation Xrotation Zrotation
        JOINT RightWrist
        {
         OFFSET -24.478199 0.000000 0.000000
         CHANNELS 3 Yrotation Xrotation Zrotation
         End Site
         {
          OFFSET -18.090752 0.000000 0.000000
         }
        }
       }
      }
     }
     JOINT LeftCollar
     {
      OFFSET 2.923010 9.499495 0.000000
      CHANNELS 3 Yrotation Xrotation Zrotation
      JOINT LeftShoulder
      {
       OFFSET 13.795216 0.000000 0.000000
       CHANNELS 3 Yrotation Xrotation Zrotation
       JOINT LeftElbow
       {
        OFFSET 30.272209 0.000000 0.000000
        CHANNELS 3 Yrotation Xrotation Zrotation
        JOINT LeftWrist
        {
         OFFSET 24.478199 0.000000 0.000000
         CHANNELS 3 Yrotation Xrotation Zrotation
         End Site
         {
          OFFSET 18.090752 0.000000 0.000000
         }
        }
       }
      }
     }
    }
   }
  }
 }
 JOINT RightHip
 {
  OFFSET -7.826875 0.019532 0.001973
  CHANNELS 3 Yrotation Xrotation Zrotation
  JOINT RightKnee
  {
   OFFSET 0.000000 -40.546152 -0.001885
   CHANNELS 3 Yrotation Xrotation Zrotation
   JOINT RightAnkle
   {
    OFFSET 0.000000 -39.417092 -0.003189
    CHANNELS 3 Yrotation Xrotation Zrotation
    JOINT RightToe
    {
     OFFSET 0.000000 -7.579396 17.243563
     CHANNELS 3 Yrotation Xrotation Zrotation
     End Site
     {
      OFFSET 0.000000 -1.500329 6.694466
     }
    }
   }
  }
 }
 JOINT LeftHip
 {
  OFFSET 7.826875 0.019532 0.001973
  CHANNELS 3 Yrotation Xrotation Zrotation
  JOINT LeftKnee
  {
   OFFSET 0.000000 -40.546152 -0.001885
   CHANNELS 3 Yrotation Xrotation Zrotation
   JOINT LeftAnkle
   {
    OFFSET 0.000000 -39.417092 -0.003189
    CHANNELS 3 Yrotation Xrotation Zrotation
    JOINT LeftToe
    {
     OFFSET 0.000000 -7.579396 17.243563
     CHANNELS 3 Yrotation Xrotation Zrotation
     End Site
     {
      OFFSET 0.000000 -1.500329 6.694466
     }
    }
   }
  }
 }
}
MOTION
Frames: 7
Frame Time: 0.008333
-2.200495 89.164399 -7.604599 -135.869028 -7.893642 -0.057822 3.409761 2.402128 -0.129490 1.936504 1.370939 -0.073285 2.420530 1.713999 -0.084367 1.936504 1.370939 -0.073285 -1.733741 24.598798 3.050934 -2.584929 0.989116 3.718077 0.781747 -2.404977 -0.926657 -16.923417 -10.453001 73.135909 67.550520 -11.343945 31.876691 -2.005057 -5.255512 5.100288 -8.244246 -1.579376 0.309798 6.633467 -1.376981 -88.649601 1.796778 -4.712267 -1.624428 -0.639217 -5.186064 -1.257492 -2.774699 10.005641 0.562921 0.903419 3.364564 0.177986 2.858856 -5.806538 -1.230868 -0.012045 -0.033268 -0.012621 8.066844 9.282839 0.097387 -3.714317 1.418627 -0.214416 -3.118320 -3.409513 1.687464 0.014190 0.062457 -0.000795
-2.194209 89.164818 -7.614082 -135.892542 -7.876758 -0.053855 3.417482 2.381215 -0.134792 1.941007 1.358953 -0.076906 2.426144 1.699037 -0.088940 1.941007 1.358953 -0.076906 -1.726925 24.644172 3.089594 -2.586808 1.046503 3.759474 0.848491 -2.464756 -0.908020 -16.979814 -10.906664 72.976621 68.017556 -11.500358 31.981899 -1.992015 -5.278896 5.141667 -8.270651 -1.586736 0.337798 6.634463 -1.363340 -88.647525 1.818799 -4.709574 -1.594965 -0.626646 -5.180109 -1.255609 -2.766903 9.991661 0.566975 0.904461 3.356342 0.177141 2.869977 -5.801685 -1.234351 -0.012118 -0.033515 -0.013261 8.079656 9.264927 0.096305 -3.713078 1.430777 -0.211597 -3.097918 -3.422160 1.680697 0.015153 0.061712 0.000681
-2.187717 89.165355 -7.624205 -135.913459 -7.857411 -0.050563 3.420904 2.357852 -0.140346 1.942895 1.345650 -0.080190 2.428492 1.682426 -0.093108 1.942895 1.345650 -0.080190 -1.714919 24.694514 3.126251 -2.582574 1.109754 3.797540 0.924116 -2.522581 -0.893444 -17.024638 -11.366244 72.809548 68.470701 -11.672661 32.092585 -1.990138 -5.307211 5.175078 -8.290221 -1.593631 0.364070 6.646658 -1.346157 -88.648923 1.840583 -4.704946 -1.563803 -0.609995 -5.171561 -1.255040 -2.759936 9.976555 0.571874 0.904080 3.346227 0.176996 2.880449 -5.795496 -1.238683 -0.011768 -0.034310 -0.013660 8.089080 9.243824 0.098133 -3.714419 1.443426 -0.207404 -3.091473 -3.434277 1.672142 0.014593 0.060674 0.000316
-2.181205 89.165948 -7.634769 -135.930280 -7.835277 -0.046029 3.418752 2.331690 -0.146238 1.941686 1.331078 -0.083147 2.426970 1.664228 -0.096886 1.941686 1.331078 -0.083147 -1.697262 24.750515 3.159747 -2.571454 1.179651 3.830905 1.008960 -2.580048 -0.883561 -17.052348 -11.828888 72.638008 68.913591 -11.850829 32.196499 -1.995946 -5.340314 5.203303 -8.299283 -1.600597 0.385401 6.670297 -1.325516 -88.649588 1.861971 -4.694694 -1.534351 -0.594106 -5.163556 -1.256014 -2.755839 9.960650 0.574915 0.902647 3.333329 0.178925 2.888414 -5.789309 -1.244112 -0.011465 -0.034480 -0.014205 8.092209 9.219864 0.101342 -3.716844 1.455365 -0.206968 -3.092221 -3.444497 1.665703 0.013059 0.058932 -0.001593
-2.174819 89.166556 -7.645756 -135.942985 -7.810645 -0.039407 3.413072 2.303345 -0.151880 1.938600 1.315534 -0.086468 2.423099 1.644815 -0.101131 1.938600 1.315534 -0.086468 -1.677783 24.812008 3.191228 -2.557896 1.256214 3.861725 1.095713 -2.638267 -0.876135 -17.065736 -12.297309 72.465508 69.345422 -12.022090 32.292651 -1.998450 -5.373973 5.236572 -8.301022 -1.607927 0.402734 6.699457 -1.300931 -88.649615 1.882950 -4.681624 -1.507234 -0.582464 -5.156668 -1.254105 -2.754576 9.945033 0.575129 0.902556 3.316167 0.182195 2.893575 -5.782995 -1.249900 -0.011107 -0.033802 -0.014804 8.092186 9.195322 0.101915 -3.716759 1.463804 -0.209380 -3.089474 -3.452053 1.661874 0.012705 0.056463 -0.003330
-2.168729 89.167175 -7.657493 -135.953458 -7.785309 -0.031410 3.406297 2.275271 -0.157367 1.934953 1.299913 -0.090289 2.418527 1.625309 -0.106002 1.934953 1.299913 -0.090289 -1.658892 24.877722 3.222642 -2.544980 1.338087 3.892688 1.180063 -2.697627 -0.867995 -17.066755 -12.777298 72.288071 69.766600 -12.183460 32.382003 -1.990451 -5.406056 5.279905 -8.300402 -1.618016 0.417303 6.729721 -1.272571 -88.649795 1.902910 -4.669643 -1.481297 -0.573286 -5.151302 -1.248325 -2.753141 9.931024 0.574634 0.903393 3.295785 0.184535 2.896307 -5.776080 -1.255411 -0.010560 -0.033157 -0.015039 8.093134 9.171408 0.100309 -3.713271 1.470667 -0.212086 -3.084929 -3.458080 1.657621 0.013414 0.053052 -0.003525
-2.162851 89.167764 -7.670219 -135.966729 -7.759630 -0.023490 3.402130 2.247846 -0.163274 1.932842 1.284230 -0.093907 2.415875 1.605726 -0.110615 1.932842 1.284230 -0.093907 -1.642075 24.946989 3.255586 -2.534698 1.424603 3.925891 1.257792 -2.756994 -0.858881 -17.050565 -13.269660 72.101189 70.181657 -12.335517 32.459153 -1.970204 -5.436809 5.328881 -8.306433 -1.629528 0.429952 6.759793 -1.242110 -88.649764 1.921449 -4.661961 -1.454936 -0.568041 -5.150340 -1.242206 -2.745925 9.916893 0.575496 0.902273 3.275522 0.185117 2.901908 -5.768692 -1.259761 -0.010617 -0.033156 -0.015332 8.101387 9.147860 0.101654 -3.711078 1.477101 -0.214754 -3.087659 -3.463409 1.650293 0.013313 0.049055 -0.002423
